<mxfile host="app.diagrams.net" modified="2023-06-28T06:22:05.395Z" agent="Mozilla/5.0 (Windows NT 10.0; Win64; x64) AppleWebKit/537.36 (KHTML, like Gecko) Chrome/114.0.0.0 Safari/537.36" etag="qK_s5hO3yNiV4Rz6d8ai" version="21.5.1" type="github">
  <diagram name="第 1 页" id="L_sd85XvLTSLJeMJPkPH">
    <mxGraphModel dx="1483" dy="409" grid="1" gridSize="10" guides="1" tooltips="1" connect="1" arrows="1" fold="1" page="1" pageScale="1" pageWidth="827" pageHeight="1169" math="0" shadow="0">
      <root>
        <mxCell id="0" />
        <mxCell id="1" parent="0" />
        <mxCell id="o9EetkC1UQInopGngO3t-11" style="edgeStyle=orthogonalEdgeStyle;shape=flexArrow;rounded=0;orthogonalLoop=1;jettySize=auto;html=1;exitX=1;exitY=0.5;exitDx=0;exitDy=0;entryX=0.5;entryY=1;entryDx=0;entryDy=0;entryPerimeter=0;startArrow=block;" parent="1" source="o9EetkC1UQInopGngO3t-1" target="o9EetkC1UQInopGngO3t-5" edge="1">
          <mxGeometry relative="1" as="geometry" />
        </mxCell>
        <mxCell id="o9EetkC1UQInopGngO3t-15" value="通知配载进度" style="edgeLabel;html=1;align=center;verticalAlign=middle;resizable=0;points=[];" parent="o9EetkC1UQInopGngO3t-11" vertex="1" connectable="0">
          <mxGeometry x="-0.2795" relative="1" as="geometry">
            <mxPoint x="23" y="-20" as="offset" />
          </mxGeometry>
        </mxCell>
        <mxCell id="o9EetkC1UQInopGngO3t-20" value="获取计划货物重量信息&lt;br&gt;用于吨控" style="edgeLabel;html=1;align=center;verticalAlign=middle;resizable=0;points=[];" parent="o9EetkC1UQInopGngO3t-11" vertex="1" connectable="0">
          <mxGeometry x="-0.1261" y="1" relative="1" as="geometry">
            <mxPoint x="-3" y="21" as="offset" />
          </mxGeometry>
        </mxCell>
        <mxCell id="o9EetkC1UQInopGngO3t-1" value="配载复核系统" style="rounded=0;whiteSpace=wrap;html=1;fillColor=#D9FFF1;" parent="1" vertex="1">
          <mxGeometry x="-130" y="280" width="150" height="80" as="geometry" />
        </mxCell>
        <mxCell id="o9EetkC1UQInopGngO3t-3" style="edgeStyle=orthogonalEdgeStyle;rounded=0;orthogonalLoop=1;jettySize=auto;html=1;entryX=0.5;entryY=0;entryDx=0;entryDy=0;shape=flexArrow;startArrow=block;" parent="1" source="o9EetkC1UQInopGngO3t-2" target="o9EetkC1UQInopGngO3t-1" edge="1">
          <mxGeometry relative="1" as="geometry" />
        </mxCell>
        <mxCell id="o9EetkC1UQInopGngO3t-16" value="发送配载相关指令、获取飞机配载信息" style="edgeLabel;html=1;align=center;verticalAlign=middle;resizable=0;points=[];" parent="o9EetkC1UQInopGngO3t-3" vertex="1" connectable="0">
          <mxGeometry x="0.2381" relative="1" as="geometry">
            <mxPoint as="offset" />
          </mxGeometry>
        </mxCell>
        <mxCell id="o9EetkC1UQInopGngO3t-9" style="edgeStyle=orthogonalEdgeStyle;shape=flexArrow;rounded=0;orthogonalLoop=1;jettySize=auto;html=1;entryX=0.5;entryY=0;entryDx=0;entryDy=0;" parent="1" source="o9EetkC1UQInopGngO3t-2" target="o9EetkC1UQInopGngO3t-4" edge="1">
          <mxGeometry relative="1" as="geometry" />
        </mxCell>
        <mxCell id="o9EetkC1UQInopGngO3t-10" value="获取舱单" style="edgeLabel;html=1;align=center;verticalAlign=middle;resizable=0;points=[];" parent="o9EetkC1UQInopGngO3t-9" vertex="1" connectable="0">
          <mxGeometry x="0.0807" y="-1" relative="1" as="geometry">
            <mxPoint as="offset" />
          </mxGeometry>
        </mxCell>
        <mxCell id="o9EetkC1UQInopGngO3t-2" value="离港系统" style="rounded=1;whiteSpace=wrap;html=1;" parent="1" vertex="1">
          <mxGeometry x="185" y="110" width="120" height="60" as="geometry" />
        </mxCell>
        <mxCell id="o9EetkC1UQInopGngO3t-4" value="智慧物流系统" style="rounded=1;whiteSpace=wrap;html=1;" parent="1" vertex="1">
          <mxGeometry x="500" y="290" width="120" height="60" as="geometry" />
        </mxCell>
        <mxCell id="o9EetkC1UQInopGngO3t-12" style="edgeStyle=orthogonalEdgeStyle;shape=flexArrow;rounded=0;orthogonalLoop=1;jettySize=auto;html=1;exitX=0.5;exitY=0;exitDx=0;exitDy=0;exitPerimeter=0;entryX=0;entryY=0.5;entryDx=0;entryDy=0;startArrow=block;" parent="1" source="o9EetkC1UQInopGngO3t-5" target="o9EetkC1UQInopGngO3t-4" edge="1">
          <mxGeometry relative="1" as="geometry" />
        </mxCell>
        <mxCell id="o9EetkC1UQInopGngO3t-17" value="获取配载进度" style="edgeLabel;html=1;align=center;verticalAlign=middle;resizable=0;points=[];" parent="o9EetkC1UQInopGngO3t-12" vertex="1" connectable="0">
          <mxGeometry x="-0.5223" relative="1" as="geometry">
            <mxPoint x="40" y="-20" as="offset" />
          </mxGeometry>
        </mxCell>
        <mxCell id="o9EetkC1UQInopGngO3t-5" value="&lt;p style=&quot;line-height: 150%;&quot;&gt;&lt;br&gt;&lt;/p&gt;" style="shape=cylinder3;whiteSpace=wrap;html=1;boundedLbl=1;backgroundOutline=1;size=15;rotation=90;" parent="1" vertex="1">
          <mxGeometry x="220" y="282.5" width="40" height="75" as="geometry" />
        </mxCell>
        <mxCell id="o9EetkC1UQInopGngO3t-21" value="发送计划货物重量信息" style="edgeLabel;html=1;align=center;verticalAlign=middle;resizable=0;points=[];" parent="1" vertex="1" connectable="0">
          <mxGeometry x="369.9971428571431" y="340" as="geometry">
            <mxPoint x="-2" y="-7" as="offset" />
          </mxGeometry>
        </mxCell>
        <mxCell id="3EDoQNshKmax-nDiu6an-2" value="贵阳机场信息公司mq" style="text;html=1;align=center;verticalAlign=middle;resizable=0;points=[];autosize=1;strokeColor=none;fillColor=none;" vertex="1" parent="1">
          <mxGeometry x="175" y="340" width="140" height="30" as="geometry" />
        </mxCell>
        <mxCell id="3EDoQNshKmax-nDiu6an-4" value="Actor" style="shape=umlActor;verticalLabelPosition=bottom;verticalAlign=top;html=1;outlineConnect=0;" vertex="1" parent="1">
          <mxGeometry x="519" y="464" width="20" height="36" as="geometry" />
        </mxCell>
        <mxCell id="3EDoQNshKmax-nDiu6an-11" value="配载室工作人员" style="text;html=1;align=center;verticalAlign=middle;resizable=0;points=[];autosize=1;strokeColor=none;fillColor=none;" vertex="1" parent="1">
          <mxGeometry x="-110" y="564" width="110" height="30" as="geometry" />
        </mxCell>
        <mxCell id="3EDoQNshKmax-nDiu6an-12" value="机场货站工作人员" style="text;html=1;align=center;verticalAlign=middle;resizable=0;points=[];autosize=1;strokeColor=none;fillColor=none;" vertex="1" parent="1">
          <mxGeometry x="500" y="555" width="120" height="30" as="geometry" />
        </mxCell>
        <mxCell id="3EDoQNshKmax-nDiu6an-13" value="" style="image;aspect=fixed;perimeter=ellipsePerimeter;html=1;align=center;shadow=0;dashed=0;spacingTop=3;image=img/lib/active_directory/cell_phone.svg;" vertex="1" parent="1">
          <mxGeometry x="519" y="388.88" width="21" height="50" as="geometry" />
        </mxCell>
        <mxCell id="3EDoQNshKmax-nDiu6an-14" value="" style="image;points=[];aspect=fixed;html=1;align=center;shadow=0;dashed=0;image=img/lib/allied_telesis/computer_and_terminals/Personal_Computer.svg;" vertex="1" parent="1">
          <mxGeometry x="-112.8" y="400" width="45.6" height="61.800000000000004" as="geometry" />
        </mxCell>
        <mxCell id="3EDoQNshKmax-nDiu6an-15" value="" style="image;points=[];aspect=fixed;html=1;align=center;shadow=0;dashed=0;image=img/lib/allied_telesis/computer_and_terminals/Personal_Computer.svg;" vertex="1" parent="1">
          <mxGeometry x="-52.8" y="402.2" width="45.6" height="61.800000000000004" as="geometry" />
        </mxCell>
        <mxCell id="3EDoQNshKmax-nDiu6an-18" value="" style="image;points=[];aspect=fixed;html=1;align=center;shadow=0;dashed=0;image=img/lib/allied_telesis/computer_and_terminals/Personal_Computer.svg;" vertex="1" parent="1">
          <mxGeometry x="560" y="380" width="50" height="67.76" as="geometry" />
        </mxCell>
        <mxCell id="3EDoQNshKmax-nDiu6an-25" value="Actor" style="shape=umlActor;verticalLabelPosition=bottom;verticalAlign=top;html=1;outlineConnect=0;" vertex="1" parent="1">
          <mxGeometry x="577.2" y="464" width="20" height="36" as="geometry" />
        </mxCell>
        <mxCell id="3EDoQNshKmax-nDiu6an-26" value="Actor" style="shape=umlActor;verticalLabelPosition=bottom;verticalAlign=top;html=1;outlineConnect=0;" vertex="1" parent="1">
          <mxGeometry x="-100" y="490" width="20" height="36" as="geometry" />
        </mxCell>
        <mxCell id="3EDoQNshKmax-nDiu6an-27" value="Actor" style="shape=umlActor;verticalLabelPosition=bottom;verticalAlign=top;html=1;outlineConnect=0;" vertex="1" parent="1">
          <mxGeometry x="-40" y="490" width="20" height="36" as="geometry" />
        </mxCell>
        <mxCell id="3EDoQNshKmax-nDiu6an-32" style="edgeStyle=orthogonalEdgeStyle;shape=flexArrow;rounded=0;orthogonalLoop=1;jettySize=auto;html=1;exitX=0.5;exitY=1;exitDx=0;exitDy=0;" edge="1" parent="1" source="o9EetkC1UQInopGngO3t-1" target="o9EetkC1UQInopGngO3t-1">
          <mxGeometry relative="1" as="geometry" />
        </mxCell>
        <mxCell id="3EDoQNshKmax-nDiu6an-33" value="" style="endArrow=none;html=1;rounded=0;exitX=0.667;exitY=0.014;exitDx=0;exitDy=0;exitPerimeter=0;" edge="1" parent="1" source="3EDoQNshKmax-nDiu6an-14">
          <mxGeometry width="50" height="50" relative="1" as="geometry">
            <mxPoint x="-90" y="420" as="sourcePoint" />
            <mxPoint x="-60" y="350" as="targetPoint" />
          </mxGeometry>
        </mxCell>
        <mxCell id="3EDoQNshKmax-nDiu6an-34" value="" style="endArrow=none;html=1;rounded=0;" edge="1" parent="1" source="3EDoQNshKmax-nDiu6an-15">
          <mxGeometry width="50" height="50" relative="1" as="geometry">
            <mxPoint x="-60" y="362" as="sourcePoint" />
            <mxPoint x="-40" y="362.2" as="targetPoint" />
            <Array as="points" />
          </mxGeometry>
        </mxCell>
        <mxCell id="3EDoQNshKmax-nDiu6an-35" value="" style="endArrow=none;html=1;rounded=0;exitX=0;exitY=0.25;exitDx=0;exitDy=0;" edge="1" parent="1" source="3EDoQNshKmax-nDiu6an-13">
          <mxGeometry width="50" height="50" relative="1" as="geometry">
            <mxPoint x="490" y="380" as="sourcePoint" />
            <mxPoint x="540" y="330" as="targetPoint" />
          </mxGeometry>
        </mxCell>
        <mxCell id="3EDoQNshKmax-nDiu6an-36" value="" style="endArrow=none;html=1;rounded=0;" edge="1" parent="1" source="3EDoQNshKmax-nDiu6an-18">
          <mxGeometry width="50" height="50" relative="1" as="geometry">
            <mxPoint x="530" y="412" as="sourcePoint" />
            <mxPoint x="570" y="340" as="targetPoint" />
          </mxGeometry>
        </mxCell>
      </root>
    </mxGraphModel>
  </diagram>
</mxfile>
